<?xml version="1.0" encoding="UTF-8" standalone="no"?>
<!DOCTYPE svg PUBLIC "-//W3C//DTD SVG 1.1//EN"
 "http://www.w3.org/Graphics/SVG/1.1/DTD/svg11.dtd">
<!-- Generated by graphviz version 6.0.1 (0)
 -->
<!-- Title: snakemake_dag Pages: 1 -->
<svg width="1626pt" height="548pt"
 viewBox="0.00 0.00 1626.00 548.00" xmlns="http://www.w3.org/2000/svg" xmlns:xlink="http://www.w3.org/1999/xlink">
<g id="graph0" class="graph" transform="scale(1 1) rotate(0) translate(4 544)">
<title>snakemake_dag</title>
<polygon fill="white" stroke="none" points="-4,4 -4,-544 1622,-544 1622,4 -4,4"/>
<!-- 0 -->
<g id="node1" class="node">
<title>0</title>
<path fill="none" stroke="#56d882" stroke-width="2" d="M782.5,-36C782.5,-36 752.5,-36 752.5,-36 746.5,-36 740.5,-30 740.5,-24 740.5,-24 740.5,-12 740.5,-12 740.5,-6 746.5,0 752.5,0 752.5,0 782.5,0 782.5,0 788.5,0 794.5,-6 794.5,-12 794.5,-12 794.5,-24 794.5,-24 794.5,-30 788.5,-36 782.5,-36"/>
<text text-anchor="middle" x="767.5" y="-15.5" font-family="sans" font-size="10.00">all</text>
</g>
<!-- 1 -->
<g id="node2" class="node">
<title>1</title>
<path fill="none" stroke="#d85656" stroke-width="2" d="M1095,-108C1095,-108 1024,-108 1024,-108 1018,-108 1012,-102 1012,-96 1012,-96 1012,-84 1012,-84 1012,-78 1018,-72 1024,-72 1024,-72 1095,-72 1095,-72 1101,-72 1107,-78 1107,-84 1107,-84 1107,-96 1107,-96 1107,-102 1101,-108 1095,-108"/>
<text text-anchor="middle" x="1059.5" y="-87.5" font-family="sans" font-size="10.00">genotype_GVCFs</text>
</g>
<!-- 1&#45;&gt;0 -->
<g id="edge1" class="edge">
<title>1&#45;&gt;0</title>
<path fill="none" stroke="grey" stroke-width="2" d="M1011.94,-77.6C954.06,-63.72 857.56,-40.59 804.78,-27.94"/>
<polygon fill="grey" stroke="grey" stroke-width="2" points="805.37,-24.48 794.83,-25.55 803.74,-31.29 805.37,-24.48"/>
</g>
<!-- 2 -->
<g id="node3" class="node">
<title>2</title>
<path fill="none" stroke="#d88556" stroke-width="2" d="M783.5,-468C783.5,-468 753.5,-468 753.5,-468 747.5,-468 741.5,-462 741.5,-456 741.5,-456 741.5,-444 741.5,-444 741.5,-438 747.5,-432 753.5,-432 753.5,-432 783.5,-432 783.5,-432 789.5,-432 795.5,-438 795.5,-444 795.5,-444 795.5,-456 795.5,-456 795.5,-462 789.5,-468 783.5,-468"/>
<text text-anchor="middle" x="768.5" y="-447.5" font-family="sans" font-size="10.00">get_refs</text>
</g>
<!-- 2&#45;&gt;1 -->
<g id="edge8" class="edge">
<title>2&#45;&gt;1</title>
<path fill="none" stroke="grey" stroke-width="2" d="M795.53,-447.43C857.26,-443.3 1005.92,-429.97 1040.5,-396 1069.35,-367.66 1059.5,-347.45 1059.5,-307 1059.5,-307 1059.5,-307 1059.5,-233 1059.5,-193 1059.5,-146.65 1059.5,-118.08"/>
<polygon fill="grey" stroke="grey" stroke-width="2" points="1063,-118.05 1059.5,-108.05 1056,-118.05 1063,-118.05"/>
</g>
<!-- 3 -->
<g id="node4" class="node">
<title>3</title>
<path fill="none" stroke="#56a9d8" stroke-width="2" d="M1163,-180C1163,-180 1100,-180 1100,-180 1094,-180 1088,-174 1088,-168 1088,-168 1088,-156 1088,-156 1088,-150 1094,-144 1100,-144 1100,-144 1163,-144 1163,-144 1169,-144 1175,-150 1175,-156 1175,-156 1175,-168 1175,-168 1175,-174 1169,-180 1163,-180"/>
<text text-anchor="middle" x="1131.5" y="-159.5" font-family="sans" font-size="10.00">haplotype_caller</text>
</g>
<!-- 2&#45;&gt;3 -->
<g id="edge10" class="edge">
<title>2&#45;&gt;3</title>
<path fill="none" stroke="grey" stroke-width="2" d="M795.52,-446.01C866.32,-437.94 1053.23,-415.04 1073.5,-396 1133.45,-339.68 1095.74,-295.59 1116.5,-216 1118.73,-207.45 1121.31,-198.16 1123.69,-189.79"/>
<polygon fill="grey" stroke="grey" stroke-width="2" points="1127.06,-190.71 1126.46,-180.14 1120.33,-188.78 1127.06,-190.71"/>
</g>
<!-- 4 -->
<g id="node5" class="node">
<title>4</title>
<path fill="none" stroke="#afd856" stroke-width="2" d="M1167.5,-252C1167.5,-252 1137.5,-252 1137.5,-252 1131.5,-252 1125.5,-246 1125.5,-240 1125.5,-240 1125.5,-228 1125.5,-228 1125.5,-222 1131.5,-216 1137.5,-216 1137.5,-216 1167.5,-216 1167.5,-216 1173.5,-216 1179.5,-222 1179.5,-228 1179.5,-228 1179.5,-240 1179.5,-240 1179.5,-246 1173.5,-252 1167.5,-252"/>
<text text-anchor="middle" x="1152.5" y="-231.5" font-family="sans" font-size="10.00">fix_RO</text>
</g>
<!-- 2&#45;&gt;4 -->
<g id="edge12" class="edge">
<title>2&#45;&gt;4</title>
<path fill="none" stroke="grey" stroke-width="2" d="M795.75,-446.52C872.79,-439.26 1088.11,-417.24 1111.5,-396 1149.04,-361.91 1154.35,-298.71 1154,-262.46"/>
<polygon fill="grey" stroke="grey" stroke-width="2" points="1157.49,-262.04 1153.74,-252.14 1150.49,-262.22 1157.49,-262.04"/>
</g>
<!-- 6 -->
<g id="node7" class="node">
<title>6</title>
<path fill="none" stroke="#d6d856" stroke-width="2" d="M1487,-396C1487,-396 1410,-396 1410,-396 1404,-396 1398,-390 1398,-384 1398,-384 1398,-372 1398,-372 1398,-366 1404,-360 1410,-360 1410,-360 1487,-360 1487,-360 1493,-360 1499,-366 1499,-372 1499,-372 1499,-384 1499,-384 1499,-390 1493,-396 1487,-396"/>
<text text-anchor="middle" x="1448.5" y="-375.5" font-family="sans" font-size="10.00">split_n_cigar_reads</text>
</g>
<!-- 2&#45;&gt;6 -->
<g id="edge15" class="edge">
<title>2&#45;&gt;6</title>
<path fill="none" stroke="grey" stroke-width="2" d="M795.57,-446.13C829.1,-442.62 887.99,-436.57 938.5,-432 1136.12,-414.13 1187.88,-429.23 1383.5,-396 1384.97,-395.75 1386.46,-395.48 1387.96,-395.2"/>
<polygon fill="grey" stroke="grey" stroke-width="2" points="1388.86,-398.59 1397.94,-393.14 1387.44,-391.73 1388.86,-398.59"/>
</g>
<!-- 9 -->
<g id="node10" class="node">
<title>9</title>
<path fill="none" stroke="#d85656" stroke-width="2" d="M916,-108C916,-108 845,-108 845,-108 839,-108 833,-102 833,-96 833,-96 833,-84 833,-84 833,-78 839,-72 845,-72 845,-72 916,-72 916,-72 922,-72 928,-78 928,-84 928,-84 928,-96 928,-96 928,-102 922,-108 916,-108"/>
<text text-anchor="middle" x="880.5" y="-87.5" font-family="sans" font-size="10.00">genotype_GVCFs</text>
</g>
<!-- 2&#45;&gt;9 -->
<g id="edge18" class="edge">
<title>2&#45;&gt;9</title>
<path fill="none" stroke="grey" stroke-width="2" d="M777.83,-431.63C783.1,-421.42 789.6,-408.17 794.5,-396 834.46,-296.72 863.35,-172.21 874.92,-118.14"/>
<polygon fill="grey" stroke="grey" stroke-width="2" points="878.36,-118.8 877,-108.29 871.51,-117.35 878.36,-118.8"/>
</g>
<!-- 10 -->
<g id="node11" class="node">
<title>10</title>
<path fill="none" stroke="#56a9d8" stroke-width="2" d="M963,-180C963,-180 900,-180 900,-180 894,-180 888,-174 888,-168 888,-168 888,-156 888,-156 888,-150 894,-144 900,-144 900,-144 963,-144 963,-144 969,-144 975,-150 975,-156 975,-156 975,-168 975,-168 975,-174 969,-180 963,-180"/>
<text text-anchor="middle" x="931.5" y="-159.5" font-family="sans" font-size="10.00">haplotype_caller</text>
</g>
<!-- 2&#45;&gt;10 -->
<g id="edge20" class="edge">
<title>2&#45;&gt;10</title>
<path fill="none" stroke="grey" stroke-width="2" d="M795.72,-433.79C810.34,-424.48 827.73,-411.4 839.5,-396 865.38,-362.15 905.54,-243.62 922.96,-189.87"/>
<polygon fill="grey" stroke="grey" stroke-width="2" points="926.39,-190.62 926.13,-180.03 919.73,-188.47 926.39,-190.62"/>
</g>
<!-- 11 -->
<g id="node12" class="node">
<title>11</title>
<path fill="none" stroke="#afd856" stroke-width="2" d="M967.5,-252C967.5,-252 937.5,-252 937.5,-252 931.5,-252 925.5,-246 925.5,-240 925.5,-240 925.5,-228 925.5,-228 925.5,-222 931.5,-216 937.5,-216 937.5,-216 967.5,-216 967.5,-216 973.5,-216 979.5,-222 979.5,-228 979.5,-228 979.5,-240 979.5,-240 979.5,-246 973.5,-252 967.5,-252"/>
<text text-anchor="middle" x="952.5" y="-231.5" font-family="sans" font-size="10.00">fix_RO</text>
</g>
<!-- 2&#45;&gt;11 -->
<g id="edge22" class="edge">
<title>2&#45;&gt;11</title>
<path fill="none" stroke="grey" stroke-width="2" d="M795.8,-441.47C819.95,-433.59 854.78,-419.1 877.5,-396 897.33,-375.83 927.26,-301.89 942.62,-261.6"/>
<polygon fill="grey" stroke="grey" stroke-width="2" points="945.94,-262.73 946.2,-252.14 939.39,-260.25 945.94,-262.73"/>
</g>
<!-- 13 -->
<g id="node14" class="node">
<title>13</title>
<path fill="none" stroke="#d6d856" stroke-width="2" d="M1253,-396C1253,-396 1176,-396 1176,-396 1170,-396 1164,-390 1164,-384 1164,-384 1164,-372 1164,-372 1164,-366 1170,-360 1176,-360 1176,-360 1253,-360 1253,-360 1259,-360 1265,-366 1265,-372 1265,-372 1265,-384 1265,-384 1265,-390 1259,-396 1253,-396"/>
<text text-anchor="middle" x="1214.5" y="-375.5" font-family="sans" font-size="10.00">split_n_cigar_reads</text>
</g>
<!-- 2&#45;&gt;13 -->
<g id="edge25" class="edge">
<title>2&#45;&gt;13</title>
<path fill="none" stroke="grey" stroke-width="2" d="M795.94,-446.3C858.86,-439.87 1018.19,-422.21 1149.5,-396 1150.97,-395.71 1152.45,-395.4 1153.94,-395.08"/>
<polygon fill="grey" stroke="grey" stroke-width="2" points="1154.9,-398.46 1163.89,-392.85 1153.37,-391.63 1154.9,-398.46"/>
</g>
<!-- 16 -->
<g id="node17" class="node">
<title>16</title>
<path fill="none" stroke="#d85656" stroke-width="2" d="M690,-108C690,-108 619,-108 619,-108 613,-108 607,-102 607,-96 607,-96 607,-84 607,-84 607,-78 613,-72 619,-72 619,-72 690,-72 690,-72 696,-72 702,-78 702,-84 702,-84 702,-96 702,-96 702,-102 696,-108 690,-108"/>
<text text-anchor="middle" x="654.5" y="-87.5" font-family="sans" font-size="10.00">genotype_GVCFs</text>
</g>
<!-- 2&#45;&gt;16 -->
<g id="edge28" class="edge">
<title>2&#45;&gt;16</title>
<path fill="none" stroke="grey" stroke-width="2" d="M746.94,-431.78C718.91,-407.28 673.5,-359.5 673.5,-307 673.5,-307 673.5,-307 673.5,-233 673.5,-192.86 665.95,-146.9 660.37,-118.4"/>
<polygon fill="grey" stroke="grey" stroke-width="2" points="663.76,-117.5 658.34,-108.39 656.89,-118.88 663.76,-117.5"/>
</g>
<!-- 17 -->
<g id="node18" class="node">
<title>17</title>
<path fill="none" stroke="#56a9d8" stroke-width="2" d="M633,-180C633,-180 570,-180 570,-180 564,-180 558,-174 558,-168 558,-168 558,-156 558,-156 558,-150 564,-144 570,-144 570,-144 633,-144 633,-144 639,-144 645,-150 645,-156 645,-156 645,-168 645,-168 645,-174 639,-180 633,-180"/>
<text text-anchor="middle" x="601.5" y="-159.5" font-family="sans" font-size="10.00">haplotype_caller</text>
</g>
<!-- 2&#45;&gt;17 -->
<g id="edge30" class="edge">
<title>2&#45;&gt;17</title>
<path fill="none" stroke="grey" stroke-width="2" d="M741.48,-442.91C716.49,-435.86 680.18,-421.76 659.5,-396 608.01,-331.86 637.26,-295.59 616.5,-216 614.27,-207.45 611.69,-198.16 609.31,-189.79"/>
<polygon fill="grey" stroke="grey" stroke-width="2" points="612.67,-188.78 606.54,-180.14 605.94,-190.71 612.67,-188.78"/>
</g>
<!-- 18 -->
<g id="node19" class="node">
<title>18</title>
<path fill="none" stroke="#afd856" stroke-width="2" d="M595.5,-252C595.5,-252 565.5,-252 565.5,-252 559.5,-252 553.5,-246 553.5,-240 553.5,-240 553.5,-228 553.5,-228 553.5,-222 559.5,-216 565.5,-216 565.5,-216 595.5,-216 595.5,-216 601.5,-216 607.5,-222 607.5,-228 607.5,-228 607.5,-240 607.5,-240 607.5,-246 601.5,-252 595.5,-252"/>
<text text-anchor="middle" x="580.5" y="-231.5" font-family="sans" font-size="10.00">fix_RO</text>
</g>
<!-- 2&#45;&gt;18 -->
<g id="edge32" class="edge">
<title>2&#45;&gt;18</title>
<path fill="none" stroke="grey" stroke-width="2" d="M741.25,-446.75C708.12,-442.53 652.77,-430.45 621.5,-396 587.77,-358.84 580.95,-297.82 580.04,-262.54"/>
<polygon fill="grey" stroke="grey" stroke-width="2" points="583.54,-262.43 579.93,-252.47 576.54,-262.51 583.54,-262.43"/>
</g>
<!-- 20 -->
<g id="node21" class="node">
<title>20</title>
<path fill="none" stroke="#d6d856" stroke-width="2" d="M519,-396C519,-396 442,-396 442,-396 436,-396 430,-390 430,-384 430,-384 430,-372 430,-372 430,-366 436,-360 442,-360 442,-360 519,-360 519,-360 525,-360 531,-366 531,-372 531,-372 531,-384 531,-384 531,-390 525,-396 519,-396"/>
<text text-anchor="middle" x="480.5" y="-375.5" font-family="sans" font-size="10.00">split_n_cigar_reads</text>
</g>
<!-- 2&#45;&gt;20 -->
<g id="edge35" class="edge">
<title>2&#45;&gt;20</title>
<path fill="none" stroke="grey" stroke-width="2" d="M741.33,-442.75C699.29,-433.03 615.96,-413.59 545.5,-396 544.05,-395.64 542.58,-395.27 541.1,-394.9"/>
<polygon fill="grey" stroke="grey" stroke-width="2" points="541.77,-391.45 531.21,-392.38 540.04,-398.24 541.77,-391.45"/>
</g>
<!-- 23 -->
<g id="node24" class="node">
<title>23</title>
<path fill="none" stroke="#d85656" stroke-width="2" d="M561,-108C561,-108 490,-108 490,-108 484,-108 478,-102 478,-96 478,-96 478,-84 478,-84 478,-78 484,-72 490,-72 490,-72 561,-72 561,-72 567,-72 573,-78 573,-84 573,-84 573,-96 573,-96 573,-102 567,-108 561,-108"/>
<text text-anchor="middle" x="525.5" y="-87.5" font-family="sans" font-size="10.00">genotype_GVCFs</text>
</g>
<!-- 2&#45;&gt;23 -->
<g id="edge38" class="edge">
<title>2&#45;&gt;23</title>
<path fill="none" stroke="grey" stroke-width="2" d="M741.48,-448.11C703.69,-445.43 635.12,-435.08 594.5,-396 516.61,-321.05 518.14,-178.19 522.67,-118.39"/>
<polygon fill="grey" stroke="grey" stroke-width="2" points="526.17,-118.49 523.53,-108.23 519.2,-117.9 526.17,-118.49"/>
</g>
<!-- 24 -->
<g id="node25" class="node">
<title>24</title>
<path fill="none" stroke="#56a9d8" stroke-width="2" d="M442,-180C442,-180 379,-180 379,-180 373,-180 367,-174 367,-168 367,-168 367,-156 367,-156 367,-150 373,-144 379,-144 379,-144 442,-144 442,-144 448,-144 454,-150 454,-156 454,-156 454,-168 454,-168 454,-174 448,-180 442,-180"/>
<text text-anchor="middle" x="410.5" y="-159.5" font-family="sans" font-size="10.00">haplotype_caller</text>
</g>
<!-- 2&#45;&gt;24 -->
<g id="edge40" class="edge">
<title>2&#45;&gt;24</title>
<path fill="none" stroke="grey" stroke-width="2" d="M741.27,-446.81C663.22,-440.26 442.94,-419.8 421.5,-396 394.88,-366.45 402.63,-245.1 407.68,-190.2"/>
<polygon fill="grey" stroke="grey" stroke-width="2" points="411.18,-190.44 408.65,-180.15 404.21,-189.77 411.18,-190.44"/>
</g>
<!-- 25 -->
<g id="node26" class="node">
<title>25</title>
<path fill="none" stroke="#afd856" stroke-width="2" d="M370.5,-252C370.5,-252 340.5,-252 340.5,-252 334.5,-252 328.5,-246 328.5,-240 328.5,-240 328.5,-228 328.5,-228 328.5,-222 334.5,-216 340.5,-216 340.5,-216 370.5,-216 370.5,-216 376.5,-216 382.5,-222 382.5,-228 382.5,-228 382.5,-240 382.5,-240 382.5,-246 376.5,-252 370.5,-252"/>
<text text-anchor="middle" x="355.5" y="-231.5" font-family="sans" font-size="10.00">fix_RO</text>
</g>
<!-- 2&#45;&gt;25 -->
<g id="edge42" class="edge">
<title>2&#45;&gt;25</title>
<path fill="none" stroke="grey" stroke-width="2" d="M741.47,-447.04C658.79,-440.79 413.3,-420.35 387.5,-396 351.06,-361.61 349.58,-298.52 352.23,-262.37"/>
<polygon fill="grey" stroke="grey" stroke-width="2" points="355.74,-262.35 353.15,-252.08 348.77,-261.73 355.74,-262.35"/>
</g>
<!-- 27 -->
<g id="node28" class="node">
<title>27</title>
<path fill="none" stroke="#d6d856" stroke-width="2" d="M285,-396C285,-396 208,-396 208,-396 202,-396 196,-390 196,-384 196,-384 196,-372 196,-372 196,-366 202,-360 208,-360 208,-360 285,-360 285,-360 291,-360 297,-366 297,-372 297,-372 297,-384 297,-384 297,-390 291,-396 285,-396"/>
<text text-anchor="middle" x="246.5" y="-375.5" font-family="sans" font-size="10.00">split_n_cigar_reads</text>
</g>
<!-- 2&#45;&gt;27 -->
<g id="edge45" class="edge">
<title>2&#45;&gt;27</title>
<path fill="none" stroke="grey" stroke-width="2" d="M741.26,-447.18C670.11,-442.14 473.01,-426.33 311.5,-396 310.03,-395.72 308.55,-395.43 307.05,-395.13"/>
<polygon fill="grey" stroke="grey" stroke-width="2" points="307.6,-391.67 297.09,-392.96 306.11,-398.51 307.6,-391.67"/>
</g>
<!-- 30 -->
<g id="node31" class="node">
<title>30</title>
<path fill="none" stroke="#d85656" stroke-width="2" d="M1329,-108C1329,-108 1258,-108 1258,-108 1252,-108 1246,-102 1246,-96 1246,-96 1246,-84 1246,-84 1246,-78 1252,-72 1258,-72 1258,-72 1329,-72 1329,-72 1335,-72 1341,-78 1341,-84 1341,-84 1341,-96 1341,-96 1341,-102 1335,-108 1329,-108"/>
<text text-anchor="middle" x="1293.5" y="-87.5" font-family="sans" font-size="10.00">genotype_GVCFs</text>
</g>
<!-- 2&#45;&gt;30 -->
<g id="edge48" class="edge">
<title>2&#45;&gt;30</title>
<path fill="none" stroke="grey" stroke-width="2" d="M795.57,-446.27C900.17,-435.71 1272.24,-398.03 1274.5,-396 1304.57,-368.95 1293.5,-347.45 1293.5,-307 1293.5,-307 1293.5,-307 1293.5,-233 1293.5,-193 1293.5,-146.65 1293.5,-118.08"/>
<polygon fill="grey" stroke="grey" stroke-width="2" points="1297,-118.05 1293.5,-108.05 1290,-118.05 1297,-118.05"/>
</g>
<!-- 31 -->
<g id="node32" class="node">
<title>31</title>
<path fill="none" stroke="#56a9d8" stroke-width="2" d="M1397,-180C1397,-180 1334,-180 1334,-180 1328,-180 1322,-174 1322,-168 1322,-168 1322,-156 1322,-156 1322,-150 1328,-144 1334,-144 1334,-144 1397,-144 1397,-144 1403,-144 1409,-150 1409,-156 1409,-156 1409,-168 1409,-168 1409,-174 1403,-180 1397,-180"/>
<text text-anchor="middle" x="1365.5" y="-159.5" font-family="sans" font-size="10.00">haplotype_caller</text>
</g>
<!-- 2&#45;&gt;31 -->
<g id="edge50" class="edge">
<title>2&#45;&gt;31</title>
<path fill="none" stroke="grey" stroke-width="2" d="M795.59,-446.27C829.13,-442.9 888.03,-436.99 938.5,-432 1020.49,-423.9 1245.38,-450.13 1307.5,-396 1369.51,-341.96 1329.74,-295.59 1350.5,-216 1352.73,-207.45 1355.31,-198.16 1357.69,-189.79"/>
<polygon fill="grey" stroke="grey" stroke-width="2" points="1361.06,-190.71 1360.46,-180.14 1354.33,-188.78 1361.06,-190.71"/>
</g>
<!-- 32 -->
<g id="node33" class="node">
<title>32</title>
<path fill="none" stroke="#afd856" stroke-width="2" d="M1401.5,-252C1401.5,-252 1371.5,-252 1371.5,-252 1365.5,-252 1359.5,-246 1359.5,-240 1359.5,-240 1359.5,-228 1359.5,-228 1359.5,-222 1365.5,-216 1371.5,-216 1371.5,-216 1401.5,-216 1401.5,-216 1407.5,-216 1413.5,-222 1413.5,-228 1413.5,-228 1413.5,-240 1413.5,-240 1413.5,-246 1407.5,-252 1401.5,-252"/>
<text text-anchor="middle" x="1386.5" y="-231.5" font-family="sans" font-size="10.00">fix_RO</text>
</g>
<!-- 2&#45;&gt;32 -->
<g id="edge52" class="edge">
<title>2&#45;&gt;32</title>
<path fill="none" stroke="grey" stroke-width="2" d="M795.58,-446.2C829.12,-442.74 888,-436.76 938.5,-432 983.7,-427.74 1310.92,-425.41 1345.5,-396 1384.23,-363.06 1389.06,-299.15 1388.32,-262.54"/>
<polygon fill="grey" stroke="grey" stroke-width="2" points="1391.8,-261.98 1387.94,-252.12 1384.8,-262.24 1391.8,-261.98"/>
</g>
<!-- 34 -->
<g id="node35" class="node">
<title>34</title>
<path fill="none" stroke="#d6d856" stroke-width="2" d="M1606,-396C1606,-396 1529,-396 1529,-396 1523,-396 1517,-390 1517,-384 1517,-384 1517,-372 1517,-372 1517,-366 1523,-360 1529,-360 1529,-360 1606,-360 1606,-360 1612,-360 1618,-366 1618,-372 1618,-372 1618,-384 1618,-384 1618,-390 1612,-396 1606,-396"/>
<text text-anchor="middle" x="1567.5" y="-375.5" font-family="sans" font-size="10.00">split_n_cigar_reads</text>
</g>
<!-- 2&#45;&gt;34 -->
<g id="edge55" class="edge">
<title>2&#45;&gt;34</title>
<path fill="none" stroke="grey" stroke-width="2" d="M795.56,-445.99C829.08,-442.32 887.95,-436.12 938.5,-432 1188.16,-411.64 1256.6,-438.67 1506.69,-396.11"/>
<polygon fill="grey" stroke="grey" stroke-width="2" points="1507.55,-399.51 1516.81,-394.36 1506.37,-392.61 1507.55,-399.51"/>
</g>
<!-- 37 -->
<g id="node38" class="node">
<title>37</title>
<path fill="none" stroke="#d85656" stroke-width="2" d="M803,-108C803,-108 732,-108 732,-108 726,-108 720,-102 720,-96 720,-96 720,-84 720,-84 720,-78 726,-72 732,-72 732,-72 803,-72 803,-72 809,-72 815,-78 815,-84 815,-84 815,-96 815,-96 815,-102 809,-108 803,-108"/>
<text text-anchor="middle" x="767.5" y="-87.5" font-family="sans" font-size="10.00">genotype_GVCFs</text>
</g>
<!-- 2&#45;&gt;37 -->
<g id="edge58" class="edge">
<title>2&#45;&gt;37</title>
<path fill="none" stroke="grey" stroke-width="2" d="M756.69,-431.96C739.99,-406.16 711.5,-355.08 711.5,-307 711.5,-307 711.5,-307 711.5,-233 711.5,-192.46 715.38,-181.2 731.5,-144 735.64,-134.46 741.55,-124.81 747.4,-116.41"/>
<polygon fill="grey" stroke="grey" stroke-width="2" points="750.34,-118.32 753.39,-108.17 744.68,-114.2 750.34,-118.32"/>
</g>
<!-- 38 -->
<g id="node39" class="node">
<title>38</title>
<path fill="none" stroke="#56a9d8" stroke-width="2" d="M815,-180C815,-180 752,-180 752,-180 746,-180 740,-174 740,-168 740,-168 740,-156 740,-156 740,-150 746,-144 752,-144 752,-144 815,-144 815,-144 821,-144 827,-150 827,-156 827,-156 827,-168 827,-168 827,-174 821,-180 815,-180"/>
<text text-anchor="middle" x="783.5" y="-159.5" font-family="sans" font-size="10.00">haplotype_caller</text>
</g>
<!-- 2&#45;&gt;38 -->
<g id="edge60" class="edge">
<title>2&#45;&gt;38</title>
<path fill="none" stroke="grey" stroke-width="2" d="M766.9,-431.93C763.63,-393.27 757.38,-296.13 768.5,-216 769.68,-207.48 771.89,-198.39 774.25,-190.2"/>
<polygon fill="grey" stroke="grey" stroke-width="2" points="777.67,-190.99 777.26,-180.41 770.98,-188.94 777.67,-190.99"/>
</g>
<!-- 39 -->
<g id="node40" class="node">
<title>39</title>
<path fill="none" stroke="#afd856" stroke-width="2" d="M819.5,-252C819.5,-252 789.5,-252 789.5,-252 783.5,-252 777.5,-246 777.5,-240 777.5,-240 777.5,-228 777.5,-228 777.5,-222 783.5,-216 789.5,-216 789.5,-216 819.5,-216 819.5,-216 825.5,-216 831.5,-222 831.5,-228 831.5,-228 831.5,-240 831.5,-240 831.5,-246 825.5,-252 819.5,-252"/>
<text text-anchor="middle" x="804.5" y="-231.5" font-family="sans" font-size="10.00">fix_RO</text>
</g>
<!-- 2&#45;&gt;39 -->
<g id="edge62" class="edge">
<title>2&#45;&gt;39</title>
<path fill="none" stroke="grey" stroke-width="2" d="M771.39,-431.85C777.63,-394.75 792.42,-306.81 799.94,-262.1"/>
<polygon fill="grey" stroke="grey" stroke-width="2" points="803.39,-262.67 801.6,-252.23 796.49,-261.51 803.39,-262.67"/>
</g>
<!-- 41 -->
<g id="node42" class="node">
<title>41</title>
<path fill="none" stroke="#d6d856" stroke-width="2" d="M1019,-396C1019,-396 942,-396 942,-396 936,-396 930,-390 930,-384 930,-384 930,-372 930,-372 930,-366 936,-360 942,-360 942,-360 1019,-360 1019,-360 1025,-360 1031,-366 1031,-372 1031,-372 1031,-384 1031,-384 1031,-390 1025,-396 1019,-396"/>
<text text-anchor="middle" x="980.5" y="-375.5" font-family="sans" font-size="10.00">split_n_cigar_reads</text>
</g>
<!-- 2&#45;&gt;41 -->
<g id="edge65" class="edge">
<title>2&#45;&gt;41</title>
<path fill="none" stroke="grey" stroke-width="2" d="M795.78,-439.99C827.05,-429.67 879.25,-412.43 920.2,-398.91"/>
<polygon fill="grey" stroke="grey" stroke-width="2" points="921.41,-402.2 929.81,-395.74 919.22,-395.55 921.41,-402.2"/>
</g>
<!-- 44 -->
<g id="node45" class="node">
<title>44</title>
<path fill="none" stroke="#d85656" stroke-width="2" d="M283,-108C283,-108 212,-108 212,-108 206,-108 200,-102 200,-96 200,-96 200,-84 200,-84 200,-78 206,-72 212,-72 212,-72 283,-72 283,-72 289,-72 295,-78 295,-84 295,-84 295,-96 295,-96 295,-102 289,-108 283,-108"/>
<text text-anchor="middle" x="247.5" y="-87.5" font-family="sans" font-size="10.00">genotype_GVCFs</text>
</g>
<!-- 2&#45;&gt;44 -->
<g id="edge68" class="edge">
<title>2&#45;&gt;44</title>
<path fill="none" stroke="grey" stroke-width="2" d="M741.17,-446.99C624.84,-438.41 176.24,-404.77 164.5,-396 130.45,-370.55 129.5,-349.5 129.5,-307 129.5,-307 129.5,-307 129.5,-233 129.5,-181.44 176.09,-138.6 210.73,-113.89"/>
<polygon fill="grey" stroke="grey" stroke-width="2" points="213,-116.57 219.24,-108.01 209.02,-110.82 213,-116.57"/>
</g>
<!-- 45 -->
<g id="node46" class="node">
<title>45</title>
<path fill="none" stroke="#56a9d8" stroke-width="2" d="M279,-180C279,-180 216,-180 216,-180 210,-180 204,-174 204,-168 204,-168 204,-156 204,-156 204,-150 210,-144 216,-144 216,-144 279,-144 279,-144 285,-144 291,-150 291,-156 291,-156 291,-168 291,-168 291,-174 285,-180 279,-180"/>
<text text-anchor="middle" x="247.5" y="-159.5" font-family="sans" font-size="10.00">haplotype_caller</text>
</g>
<!-- 2&#45;&gt;45 -->
<g id="edge70" class="edge">
<title>2&#45;&gt;45</title>
<path fill="none" stroke="grey" stroke-width="2" d="M741.29,-446.98C654.87,-440.35 390.51,-418.41 359.5,-396 323.54,-370.01 276.33,-245.21 256.69,-189.71"/>
<polygon fill="grey" stroke="grey" stroke-width="2" points="259.96,-188.47 253.35,-180.19 253.36,-190.79 259.96,-188.47"/>
</g>
<!-- 46 -->
<g id="node47" class="node">
<title>46</title>
<path fill="none" stroke="#afd856" stroke-width="2" d="M199.5,-252C199.5,-252 169.5,-252 169.5,-252 163.5,-252 157.5,-246 157.5,-240 157.5,-240 157.5,-228 157.5,-228 157.5,-222 163.5,-216 169.5,-216 169.5,-216 199.5,-216 199.5,-216 205.5,-216 211.5,-222 211.5,-228 211.5,-228 211.5,-240 211.5,-240 211.5,-246 205.5,-252 199.5,-252"/>
<text text-anchor="middle" x="184.5" y="-231.5" font-family="sans" font-size="10.00">fix_RO</text>
</g>
<!-- 2&#45;&gt;46 -->
<g id="edge72" class="edge">
<title>2&#45;&gt;46</title>
<path fill="none" stroke="grey" stroke-width="2" d="M741.37,-447.02C627.93,-438.66 197.08,-406.3 187.5,-396 153.97,-359.95 165.15,-297.3 175.4,-261.72"/>
<polygon fill="grey" stroke="grey" stroke-width="2" points="178.79,-262.61 178.36,-252.02 172.09,-260.56 178.79,-262.61"/>
</g>
<!-- 48 -->
<g id="node49" class="node">
<title>48</title>
<path fill="none" stroke="#d6d856" stroke-width="2" d="M89,-396C89,-396 12,-396 12,-396 6,-396 0,-390 0,-384 0,-384 0,-372 0,-372 0,-366 6,-360 12,-360 12,-360 89,-360 89,-360 95,-360 101,-366 101,-372 101,-372 101,-384 101,-384 101,-390 95,-396 89,-396"/>
<text text-anchor="middle" x="50.5" y="-375.5" font-family="sans" font-size="10.00">split_n_cigar_reads</text>
</g>
<!-- 2&#45;&gt;48 -->
<g id="edge75" class="edge">
<title>2&#45;&gt;48</title>
<path fill="none" stroke="grey" stroke-width="2" d="M741.47,-447.09C626.11,-438.88 177.94,-406.62 115.5,-396 114.03,-395.75 112.54,-395.48 111.04,-395.2"/>
<polygon fill="grey" stroke="grey" stroke-width="2" points="111.56,-391.73 101.06,-393.14 110.14,-398.59 111.56,-391.73"/>
</g>
<!-- 3&#45;&gt;1 -->
<g id="edge9" class="edge">
<title>3&#45;&gt;1</title>
<path fill="none" stroke="grey" stroke-width="2" d="M1113.7,-143.7C1104.9,-135.14 1094.12,-124.66 1084.5,-115.3"/>
<polygon fill="grey" stroke="grey" stroke-width="2" points="1086.7,-112.57 1077.09,-108.1 1081.82,-117.58 1086.7,-112.57"/>
</g>
<!-- 4&#45;&gt;3 -->
<g id="edge11" class="edge">
<title>4&#45;&gt;3</title>
<path fill="none" stroke="grey" stroke-width="2" d="M1147.31,-215.7C1144.97,-207.9 1142.15,-198.51 1139.55,-189.83"/>
<polygon fill="grey" stroke="grey" stroke-width="2" points="1142.86,-188.68 1136.63,-180.1 1136.15,-190.69 1142.86,-188.68"/>
</g>
<!-- 5 -->
<g id="node6" class="node">
<title>5</title>
<path fill="none" stroke="#80d856" stroke-width="2" d="M1451.5,-324C1451.5,-324 1421.5,-324 1421.5,-324 1415.5,-324 1409.5,-318 1409.5,-312 1409.5,-312 1409.5,-300 1409.5,-300 1409.5,-294 1415.5,-288 1421.5,-288 1421.5,-288 1451.5,-288 1451.5,-288 1457.5,-288 1463.5,-294 1463.5,-300 1463.5,-300 1463.5,-312 1463.5,-312 1463.5,-318 1457.5,-324 1451.5,-324"/>
<text text-anchor="middle" x="1436.5" y="-303.5" font-family="sans" font-size="10.00">fix_RG</text>
</g>
<!-- 5&#45;&gt;4 -->
<g id="edge13" class="edge">
<title>5&#45;&gt;4</title>
<path fill="none" stroke="grey" stroke-width="2" d="M1409.27,-298.29C1358.06,-285.67 1247.37,-258.38 1189.48,-244.11"/>
<polygon fill="grey" stroke="grey" stroke-width="2" points="1190.2,-240.69 1179.65,-241.69 1188.52,-247.48 1190.2,-240.69"/>
</g>
<!-- 6&#45;&gt;5 -->
<g id="edge14" class="edge">
<title>6&#45;&gt;5</title>
<path fill="none" stroke="grey" stroke-width="2" d="M1445.53,-359.7C1444.21,-351.98 1442.62,-342.71 1441.15,-334.11"/>
<polygon fill="grey" stroke="grey" stroke-width="2" points="1444.57,-333.37 1439.43,-324.1 1437.67,-334.55 1444.57,-333.37"/>
</g>
<!-- 7 -->
<g id="node8" class="node">
<title>7</title>
<path fill="none" stroke="#d8ac56" stroke-width="2" d="M1469.5,-468C1469.5,-468 1427.5,-468 1427.5,-468 1421.5,-468 1415.5,-462 1415.5,-456 1415.5,-456 1415.5,-444 1415.5,-444 1415.5,-438 1421.5,-432 1427.5,-432 1427.5,-432 1469.5,-432 1469.5,-432 1475.5,-432 1481.5,-438 1481.5,-444 1481.5,-444 1481.5,-456 1481.5,-456 1481.5,-462 1475.5,-468 1469.5,-468"/>
<text text-anchor="middle" x="1448.5" y="-447.5" font-family="sans" font-size="10.00">deduplicate</text>
</g>
<!-- 7&#45;&gt;6 -->
<g id="edge16" class="edge">
<title>7&#45;&gt;6</title>
<path fill="none" stroke="grey" stroke-width="2" d="M1448.5,-431.7C1448.5,-423.98 1448.5,-414.71 1448.5,-406.11"/>
<polygon fill="grey" stroke="grey" stroke-width="2" points="1452,-406.1 1448.5,-396.1 1445,-406.1 1452,-406.1"/>
</g>
<!-- 8 -->
<g id="node9" class="node">
<title>8</title>
<path fill="none" stroke="#56d8a9" stroke-width="2" d="M1472,-540C1472,-540 1425,-540 1425,-540 1419,-540 1413,-534 1413,-528 1413,-528 1413,-516 1413,-516 1413,-510 1419,-504 1425,-504 1425,-504 1472,-504 1472,-504 1478,-504 1484,-510 1484,-516 1484,-516 1484,-528 1484,-528 1484,-534 1478,-540 1472,-540"/>
<text text-anchor="middle" x="1448.5" y="-525" font-family="sans" font-size="10.00">get_mapped</text>
<text text-anchor="middle" x="1448.5" y="-514" font-family="sans" font-size="10.00">sample: X1a</text>
</g>
<!-- 8&#45;&gt;7 -->
<g id="edge17" class="edge">
<title>8&#45;&gt;7</title>
<path fill="none" stroke="grey" stroke-width="2" d="M1448.5,-503.7C1448.5,-495.98 1448.5,-486.71 1448.5,-478.11"/>
<polygon fill="grey" stroke="grey" stroke-width="2" points="1452,-478.1 1448.5,-468.1 1445,-478.1 1452,-478.1"/>
</g>
<!-- 9&#45;&gt;0 -->
<g id="edge2" class="edge">
<title>9&#45;&gt;0</title>
<path fill="none" stroke="grey" stroke-width="2" d="M852.86,-71.88C837.97,-62.66 819.43,-51.17 803.44,-41.26"/>
<polygon fill="grey" stroke="grey" stroke-width="2" points="805.2,-38.24 794.86,-35.95 801.52,-44.19 805.2,-38.24"/>
</g>
<!-- 10&#45;&gt;9 -->
<g id="edge19" class="edge">
<title>10&#45;&gt;9</title>
<path fill="none" stroke="grey" stroke-width="2" d="M918.89,-143.7C912.9,-135.47 905.62,-125.48 899.02,-116.42"/>
<polygon fill="grey" stroke="grey" stroke-width="2" points="901.68,-114.13 892.96,-108.1 896.02,-118.25 901.68,-114.13"/>
</g>
<!-- 11&#45;&gt;10 -->
<g id="edge21" class="edge">
<title>11&#45;&gt;10</title>
<path fill="none" stroke="grey" stroke-width="2" d="M947.31,-215.7C944.97,-207.9 942.15,-198.51 939.55,-189.83"/>
<polygon fill="grey" stroke="grey" stroke-width="2" points="942.86,-188.68 936.63,-180.1 936.15,-190.69 942.86,-188.68"/>
</g>
<!-- 12 -->
<g id="node13" class="node">
<title>12</title>
<path fill="none" stroke="#80d856" stroke-width="2" d="M1217.5,-324C1217.5,-324 1187.5,-324 1187.5,-324 1181.5,-324 1175.5,-318 1175.5,-312 1175.5,-312 1175.5,-300 1175.5,-300 1175.5,-294 1181.5,-288 1187.5,-288 1187.5,-288 1217.5,-288 1217.5,-288 1223.5,-288 1229.5,-294 1229.5,-300 1229.5,-300 1229.5,-312 1229.5,-312 1229.5,-318 1223.5,-324 1217.5,-324"/>
<text text-anchor="middle" x="1202.5" y="-303.5" font-family="sans" font-size="10.00">fix_RG</text>
</g>
<!-- 12&#45;&gt;11 -->
<g id="edge23" class="edge">
<title>12&#45;&gt;11</title>
<path fill="none" stroke="grey" stroke-width="2" d="M1175.27,-297.38C1130.28,-284.78 1040.36,-259.6 989.6,-245.39"/>
<polygon fill="grey" stroke="grey" stroke-width="2" points="990.27,-241.94 979.7,-242.62 988.38,-248.68 990.27,-241.94"/>
</g>
<!-- 13&#45;&gt;12 -->
<g id="edge24" class="edge">
<title>13&#45;&gt;12</title>
<path fill="none" stroke="grey" stroke-width="2" d="M1211.53,-359.7C1210.21,-351.98 1208.62,-342.71 1207.15,-334.11"/>
<polygon fill="grey" stroke="grey" stroke-width="2" points="1210.57,-333.37 1205.43,-324.1 1203.67,-334.55 1210.57,-333.37"/>
</g>
<!-- 14 -->
<g id="node15" class="node">
<title>14</title>
<path fill="none" stroke="#d8ac56" stroke-width="2" d="M1235.5,-468C1235.5,-468 1193.5,-468 1193.5,-468 1187.5,-468 1181.5,-462 1181.5,-456 1181.5,-456 1181.5,-444 1181.5,-444 1181.5,-438 1187.5,-432 1193.5,-432 1193.5,-432 1235.5,-432 1235.5,-432 1241.5,-432 1247.5,-438 1247.5,-444 1247.5,-444 1247.5,-456 1247.5,-456 1247.5,-462 1241.5,-468 1235.5,-468"/>
<text text-anchor="middle" x="1214.5" y="-447.5" font-family="sans" font-size="10.00">deduplicate</text>
</g>
<!-- 14&#45;&gt;13 -->
<g id="edge26" class="edge">
<title>14&#45;&gt;13</title>
<path fill="none" stroke="grey" stroke-width="2" d="M1214.5,-431.7C1214.5,-423.98 1214.5,-414.71 1214.5,-406.11"/>
<polygon fill="grey" stroke="grey" stroke-width="2" points="1218,-406.1 1214.5,-396.1 1211,-406.1 1218,-406.1"/>
</g>
<!-- 15 -->
<g id="node16" class="node">
<title>15</title>
<path fill="none" stroke="#56d8a9" stroke-width="2" d="M1238,-540C1238,-540 1191,-540 1191,-540 1185,-540 1179,-534 1179,-528 1179,-528 1179,-516 1179,-516 1179,-510 1185,-504 1191,-504 1191,-504 1238,-504 1238,-504 1244,-504 1250,-510 1250,-516 1250,-516 1250,-528 1250,-528 1250,-534 1244,-540 1238,-540"/>
<text text-anchor="middle" x="1214.5" y="-525" font-family="sans" font-size="10.00">get_mapped</text>
<text text-anchor="middle" x="1214.5" y="-514" font-family="sans" font-size="10.00">sample: X1b</text>
</g>
<!-- 15&#45;&gt;14 -->
<g id="edge27" class="edge">
<title>15&#45;&gt;14</title>
<path fill="none" stroke="grey" stroke-width="2" d="M1214.5,-503.7C1214.5,-495.98 1214.5,-486.71 1214.5,-478.11"/>
<polygon fill="grey" stroke="grey" stroke-width="2" points="1218,-478.1 1214.5,-468.1 1211,-478.1 1218,-478.1"/>
</g>
<!-- 16&#45;&gt;0 -->
<g id="edge3" class="edge">
<title>16&#45;&gt;0</title>
<path fill="none" stroke="grey" stroke-width="2" d="M682.14,-71.88C697.03,-62.66 715.57,-51.17 731.56,-41.26"/>
<polygon fill="grey" stroke="grey" stroke-width="2" points="733.48,-44.19 740.14,-35.95 729.8,-38.24 733.48,-44.19"/>
</g>
<!-- 17&#45;&gt;16 -->
<g id="edge29" class="edge">
<title>17&#45;&gt;16</title>
<path fill="none" stroke="grey" stroke-width="2" d="M614.6,-143.7C620.89,-135.39 628.55,-125.28 635.46,-116.14"/>
<polygon fill="grey" stroke="grey" stroke-width="2" points="638.3,-118.19 641.55,-108.1 632.72,-113.96 638.3,-118.19"/>
</g>
<!-- 18&#45;&gt;17 -->
<g id="edge31" class="edge">
<title>18&#45;&gt;17</title>
<path fill="none" stroke="grey" stroke-width="2" d="M585.69,-215.7C588.03,-207.9 590.85,-198.51 593.45,-189.83"/>
<polygon fill="grey" stroke="grey" stroke-width="2" points="596.85,-190.69 596.37,-180.1 590.14,-188.68 596.85,-190.69"/>
</g>
<!-- 19 -->
<g id="node20" class="node">
<title>19</title>
<path fill="none" stroke="#80d856" stroke-width="2" d="M501.5,-324C501.5,-324 471.5,-324 471.5,-324 465.5,-324 459.5,-318 459.5,-312 459.5,-312 459.5,-300 459.5,-300 459.5,-294 465.5,-288 471.5,-288 471.5,-288 501.5,-288 501.5,-288 507.5,-288 513.5,-294 513.5,-300 513.5,-300 513.5,-312 513.5,-312 513.5,-318 507.5,-324 501.5,-324"/>
<text text-anchor="middle" x="486.5" y="-303.5" font-family="sans" font-size="10.00">fix_RG</text>
</g>
<!-- 19&#45;&gt;18 -->
<g id="edge33" class="edge">
<title>19&#45;&gt;18</title>
<path fill="none" stroke="grey" stroke-width="2" d="M509.74,-287.7C521.69,-278.8 536.42,-267.82 549.35,-258.2"/>
<polygon fill="grey" stroke="grey" stroke-width="2" points="551.6,-260.88 557.53,-252.1 547.42,-255.27 551.6,-260.88"/>
</g>
<!-- 20&#45;&gt;19 -->
<g id="edge34" class="edge">
<title>20&#45;&gt;19</title>
<path fill="none" stroke="grey" stroke-width="2" d="M481.98,-359.7C482.64,-351.98 483.44,-342.71 484.18,-334.11"/>
<polygon fill="grey" stroke="grey" stroke-width="2" points="487.67,-334.37 485.03,-324.1 480.69,-333.77 487.67,-334.37"/>
</g>
<!-- 21 -->
<g id="node22" class="node">
<title>21</title>
<path fill="none" stroke="#d8ac56" stroke-width="2" d="M501.5,-468C501.5,-468 459.5,-468 459.5,-468 453.5,-468 447.5,-462 447.5,-456 447.5,-456 447.5,-444 447.5,-444 447.5,-438 453.5,-432 459.5,-432 459.5,-432 501.5,-432 501.5,-432 507.5,-432 513.5,-438 513.5,-444 513.5,-444 513.5,-456 513.5,-456 513.5,-462 507.5,-468 501.5,-468"/>
<text text-anchor="middle" x="480.5" y="-447.5" font-family="sans" font-size="10.00">deduplicate</text>
</g>
<!-- 21&#45;&gt;20 -->
<g id="edge36" class="edge">
<title>21&#45;&gt;20</title>
<path fill="none" stroke="grey" stroke-width="2" d="M480.5,-431.7C480.5,-423.98 480.5,-414.71 480.5,-406.11"/>
<polygon fill="grey" stroke="grey" stroke-width="2" points="484,-406.1 480.5,-396.1 477,-406.1 484,-406.1"/>
</g>
<!-- 22 -->
<g id="node23" class="node">
<title>22</title>
<path fill="none" stroke="#56d8a9" stroke-width="2" d="M504,-540C504,-540 457,-540 457,-540 451,-540 445,-534 445,-528 445,-528 445,-516 445,-516 445,-510 451,-504 457,-504 457,-504 504,-504 504,-504 510,-504 516,-510 516,-516 516,-516 516,-528 516,-528 516,-534 510,-540 504,-540"/>
<text text-anchor="middle" x="480.5" y="-525" font-family="sans" font-size="10.00">get_mapped</text>
<text text-anchor="middle" x="480.5" y="-514" font-family="sans" font-size="10.00">sample: X3a</text>
</g>
<!-- 22&#45;&gt;21 -->
<g id="edge37" class="edge">
<title>22&#45;&gt;21</title>
<path fill="none" stroke="grey" stroke-width="2" d="M480.5,-503.7C480.5,-495.98 480.5,-486.71 480.5,-478.11"/>
<polygon fill="grey" stroke="grey" stroke-width="2" points="484,-478.1 480.5,-468.1 477,-478.1 484,-478.1"/>
</g>
<!-- 23&#45;&gt;0 -->
<g id="edge4" class="edge">
<title>23&#45;&gt;0</title>
<path fill="none" stroke="grey" stroke-width="2" d="M573.02,-75.25C619.18,-61.9 688.31,-41.91 730.51,-29.7"/>
<polygon fill="grey" stroke="grey" stroke-width="2" points="731.74,-32.99 740.37,-26.85 729.79,-26.26 731.74,-32.99"/>
</g>
<!-- 24&#45;&gt;23 -->
<g id="edge39" class="edge">
<title>24&#45;&gt;23</title>
<path fill="none" stroke="grey" stroke-width="2" d="M438.63,-143.88C453.67,-134.72 472.37,-123.34 488.56,-113.48"/>
<polygon fill="grey" stroke="grey" stroke-width="2" points="490.54,-116.38 497.26,-108.19 486.9,-110.4 490.54,-116.38"/>
</g>
<!-- 25&#45;&gt;24 -->
<g id="edge41" class="edge">
<title>25&#45;&gt;24</title>
<path fill="none" stroke="grey" stroke-width="2" d="M369.1,-215.7C375.62,-207.39 383.57,-197.28 390.75,-188.14"/>
<polygon fill="grey" stroke="grey" stroke-width="2" points="393.63,-190.13 397.06,-180.1 388.13,-185.81 393.63,-190.13"/>
</g>
<!-- 26 -->
<g id="node27" class="node">
<title>26</title>
<path fill="none" stroke="#80d856" stroke-width="2" d="M267.5,-324C267.5,-324 237.5,-324 237.5,-324 231.5,-324 225.5,-318 225.5,-312 225.5,-312 225.5,-300 225.5,-300 225.5,-294 231.5,-288 237.5,-288 237.5,-288 267.5,-288 267.5,-288 273.5,-288 279.5,-294 279.5,-300 279.5,-300 279.5,-312 279.5,-312 279.5,-318 273.5,-324 267.5,-324"/>
<text text-anchor="middle" x="252.5" y="-303.5" font-family="sans" font-size="10.00">fix_RG</text>
</g>
<!-- 26&#45;&gt;25 -->
<g id="edge43" class="edge">
<title>26&#45;&gt;25</title>
<path fill="none" stroke="grey" stroke-width="2" d="M277.7,-287.88C290.91,-278.89 307.29,-267.76 321.61,-258.03"/>
<polygon fill="grey" stroke="grey" stroke-width="2" points="323.9,-260.71 330.21,-252.19 319.97,-254.92 323.9,-260.71"/>
</g>
<!-- 27&#45;&gt;26 -->
<g id="edge44" class="edge">
<title>27&#45;&gt;26</title>
<path fill="none" stroke="grey" stroke-width="2" d="M247.98,-359.7C248.64,-351.98 249.44,-342.71 250.18,-334.11"/>
<polygon fill="grey" stroke="grey" stroke-width="2" points="253.67,-334.37 251.03,-324.1 246.69,-333.77 253.67,-334.37"/>
</g>
<!-- 28 -->
<g id="node29" class="node">
<title>28</title>
<path fill="none" stroke="#d8ac56" stroke-width="2" d="M267.5,-468C267.5,-468 225.5,-468 225.5,-468 219.5,-468 213.5,-462 213.5,-456 213.5,-456 213.5,-444 213.5,-444 213.5,-438 219.5,-432 225.5,-432 225.5,-432 267.5,-432 267.5,-432 273.5,-432 279.5,-438 279.5,-444 279.5,-444 279.5,-456 279.5,-456 279.5,-462 273.5,-468 267.5,-468"/>
<text text-anchor="middle" x="246.5" y="-447.5" font-family="sans" font-size="10.00">deduplicate</text>
</g>
<!-- 28&#45;&gt;27 -->
<g id="edge46" class="edge">
<title>28&#45;&gt;27</title>
<path fill="none" stroke="grey" stroke-width="2" d="M246.5,-431.7C246.5,-423.98 246.5,-414.71 246.5,-406.11"/>
<polygon fill="grey" stroke="grey" stroke-width="2" points="250,-406.1 246.5,-396.1 243,-406.1 250,-406.1"/>
</g>
<!-- 29 -->
<g id="node30" class="node">
<title>29</title>
<path fill="none" stroke="#56d8a9" stroke-width="2" d="M270,-540C270,-540 223,-540 223,-540 217,-540 211,-534 211,-528 211,-528 211,-516 211,-516 211,-510 217,-504 223,-504 223,-504 270,-504 270,-504 276,-504 282,-510 282,-516 282,-516 282,-528 282,-528 282,-534 276,-540 270,-540"/>
<text text-anchor="middle" x="246.5" y="-525" font-family="sans" font-size="10.00">get_mapped</text>
<text text-anchor="middle" x="246.5" y="-514" font-family="sans" font-size="10.00">sample: X3b</text>
</g>
<!-- 29&#45;&gt;28 -->
<g id="edge47" class="edge">
<title>29&#45;&gt;28</title>
<path fill="none" stroke="grey" stroke-width="2" d="M246.5,-503.7C246.5,-495.98 246.5,-486.71 246.5,-478.11"/>
<polygon fill="grey" stroke="grey" stroke-width="2" points="250,-478.1 246.5,-468.1 243,-478.1 250,-478.1"/>
</g>
<!-- 30&#45;&gt;0 -->
<g id="edge5" class="edge">
<title>30&#45;&gt;0</title>
<path fill="none" stroke="grey" stroke-width="2" d="M1245.89,-82.66C1142.28,-68.88 898.16,-36.39 804.75,-23.96"/>
<polygon fill="grey" stroke="grey" stroke-width="2" points="805.01,-20.46 794.64,-22.61 804.09,-27.4 805.01,-20.46"/>
</g>
<!-- 31&#45;&gt;30 -->
<g id="edge49" class="edge">
<title>31&#45;&gt;30</title>
<path fill="none" stroke="grey" stroke-width="2" d="M1347.7,-143.7C1338.9,-135.14 1328.12,-124.66 1318.5,-115.3"/>
<polygon fill="grey" stroke="grey" stroke-width="2" points="1320.7,-112.57 1311.09,-108.1 1315.82,-117.58 1320.7,-112.57"/>
</g>
<!-- 32&#45;&gt;31 -->
<g id="edge51" class="edge">
<title>32&#45;&gt;31</title>
<path fill="none" stroke="grey" stroke-width="2" d="M1381.31,-215.7C1378.97,-207.9 1376.15,-198.51 1373.55,-189.83"/>
<polygon fill="grey" stroke="grey" stroke-width="2" points="1376.86,-188.68 1370.63,-180.1 1370.15,-190.69 1376.86,-188.68"/>
</g>
<!-- 33 -->
<g id="node34" class="node">
<title>33</title>
<path fill="none" stroke="#80d856" stroke-width="2" d="M1552.5,-324C1552.5,-324 1522.5,-324 1522.5,-324 1516.5,-324 1510.5,-318 1510.5,-312 1510.5,-312 1510.5,-300 1510.5,-300 1510.5,-294 1516.5,-288 1522.5,-288 1522.5,-288 1552.5,-288 1552.5,-288 1558.5,-288 1564.5,-294 1564.5,-300 1564.5,-300 1564.5,-312 1564.5,-312 1564.5,-318 1558.5,-324 1552.5,-324"/>
<text text-anchor="middle" x="1537.5" y="-303.5" font-family="sans" font-size="10.00">fix_RG</text>
</g>
<!-- 33&#45;&gt;32 -->
<g id="edge53" class="edge">
<title>33&#45;&gt;32</title>
<path fill="none" stroke="grey" stroke-width="2" d="M1510.16,-292.32C1485.68,-280.98 1449.6,-264.25 1422.73,-251.8"/>
<polygon fill="grey" stroke="grey" stroke-width="2" points="1424.19,-248.61 1413.64,-247.58 1421.24,-254.96 1424.19,-248.61"/>
</g>
<!-- 34&#45;&gt;33 -->
<g id="edge54" class="edge">
<title>34&#45;&gt;33</title>
<path fill="none" stroke="grey" stroke-width="2" d="M1560.08,-359.7C1556.71,-351.81 1552.63,-342.3 1548.88,-333.55"/>
<polygon fill="grey" stroke="grey" stroke-width="2" points="1551.99,-331.92 1544.83,-324.1 1545.55,-334.67 1551.99,-331.92"/>
</g>
<!-- 35 -->
<g id="node36" class="node">
<title>35</title>
<path fill="none" stroke="#d8ac56" stroke-width="2" d="M1588.5,-468C1588.5,-468 1546.5,-468 1546.5,-468 1540.5,-468 1534.5,-462 1534.5,-456 1534.5,-456 1534.5,-444 1534.5,-444 1534.5,-438 1540.5,-432 1546.5,-432 1546.5,-432 1588.5,-432 1588.5,-432 1594.5,-432 1600.5,-438 1600.5,-444 1600.5,-444 1600.5,-456 1600.5,-456 1600.5,-462 1594.5,-468 1588.5,-468"/>
<text text-anchor="middle" x="1567.5" y="-447.5" font-family="sans" font-size="10.00">deduplicate</text>
</g>
<!-- 35&#45;&gt;34 -->
<g id="edge56" class="edge">
<title>35&#45;&gt;34</title>
<path fill="none" stroke="grey" stroke-width="2" d="M1567.5,-431.7C1567.5,-423.98 1567.5,-414.71 1567.5,-406.11"/>
<polygon fill="grey" stroke="grey" stroke-width="2" points="1571,-406.1 1567.5,-396.1 1564,-406.1 1571,-406.1"/>
</g>
<!-- 36 -->
<g id="node37" class="node">
<title>36</title>
<path fill="none" stroke="#56d8a9" stroke-width="2" d="M1591,-540C1591,-540 1544,-540 1544,-540 1538,-540 1532,-534 1532,-528 1532,-528 1532,-516 1532,-516 1532,-510 1538,-504 1544,-504 1544,-504 1591,-504 1591,-504 1597,-504 1603,-510 1603,-516 1603,-516 1603,-528 1603,-528 1603,-534 1597,-540 1591,-540"/>
<text text-anchor="middle" x="1567.5" y="-525" font-family="sans" font-size="10.00">get_mapped</text>
<text text-anchor="middle" x="1567.5" y="-514" font-family="sans" font-size="10.00">sample: X11</text>
</g>
<!-- 36&#45;&gt;35 -->
<g id="edge57" class="edge">
<title>36&#45;&gt;35</title>
<path fill="none" stroke="grey" stroke-width="2" d="M1567.5,-503.7C1567.5,-495.98 1567.5,-486.71 1567.5,-478.11"/>
<polygon fill="grey" stroke="grey" stroke-width="2" points="1571,-478.1 1567.5,-468.1 1564,-478.1 1571,-478.1"/>
</g>
<!-- 37&#45;&gt;0 -->
<g id="edge6" class="edge">
<title>37&#45;&gt;0</title>
<path fill="none" stroke="grey" stroke-width="2" d="M767.5,-71.7C767.5,-63.98 767.5,-54.71 767.5,-46.11"/>
<polygon fill="grey" stroke="grey" stroke-width="2" points="771,-46.1 767.5,-36.1 764,-46.1 771,-46.1"/>
</g>
<!-- 38&#45;&gt;37 -->
<g id="edge59" class="edge">
<title>38&#45;&gt;37</title>
<path fill="none" stroke="grey" stroke-width="2" d="M779.54,-143.7C777.78,-135.98 775.66,-126.71 773.7,-118.11"/>
<polygon fill="grey" stroke="grey" stroke-width="2" points="777.05,-117.07 771.41,-108.1 770.23,-118.63 777.05,-117.07"/>
</g>
<!-- 39&#45;&gt;38 -->
<g id="edge61" class="edge">
<title>39&#45;&gt;38</title>
<path fill="none" stroke="grey" stroke-width="2" d="M799.31,-215.7C796.97,-207.9 794.15,-198.51 791.55,-189.83"/>
<polygon fill="grey" stroke="grey" stroke-width="2" points="794.86,-188.68 788.63,-180.1 788.15,-190.69 794.86,-188.68"/>
</g>
<!-- 40 -->
<g id="node41" class="node">
<title>40</title>
<path fill="none" stroke="#80d856" stroke-width="2" d="M983.5,-324C983.5,-324 953.5,-324 953.5,-324 947.5,-324 941.5,-318 941.5,-312 941.5,-312 941.5,-300 941.5,-300 941.5,-294 947.5,-288 953.5,-288 953.5,-288 983.5,-288 983.5,-288 989.5,-288 995.5,-294 995.5,-300 995.5,-300 995.5,-312 995.5,-312 995.5,-318 989.5,-324 983.5,-324"/>
<text text-anchor="middle" x="968.5" y="-303.5" font-family="sans" font-size="10.00">fix_RG</text>
</g>
<!-- 40&#45;&gt;39 -->
<g id="edge63" class="edge">
<title>40&#45;&gt;39</title>
<path fill="none" stroke="grey" stroke-width="2" d="M941.42,-293.44C914,-281.74 871.42,-263.56 841.03,-250.59"/>
<polygon fill="grey" stroke="grey" stroke-width="2" points="842.19,-247.28 831.62,-246.58 839.44,-253.72 842.19,-247.28"/>
</g>
<!-- 41&#45;&gt;40 -->
<g id="edge64" class="edge">
<title>41&#45;&gt;40</title>
<path fill="none" stroke="grey" stroke-width="2" d="M977.53,-359.7C976.21,-351.98 974.62,-342.71 973.15,-334.11"/>
<polygon fill="grey" stroke="grey" stroke-width="2" points="976.57,-333.37 971.43,-324.1 969.67,-334.55 976.57,-333.37"/>
</g>
<!-- 42 -->
<g id="node43" class="node">
<title>42</title>
<path fill="none" stroke="#d8ac56" stroke-width="2" d="M1001.5,-468C1001.5,-468 959.5,-468 959.5,-468 953.5,-468 947.5,-462 947.5,-456 947.5,-456 947.5,-444 947.5,-444 947.5,-438 953.5,-432 959.5,-432 959.5,-432 1001.5,-432 1001.5,-432 1007.5,-432 1013.5,-438 1013.5,-444 1013.5,-444 1013.5,-456 1013.5,-456 1013.5,-462 1007.5,-468 1001.5,-468"/>
<text text-anchor="middle" x="980.5" y="-447.5" font-family="sans" font-size="10.00">deduplicate</text>
</g>
<!-- 42&#45;&gt;41 -->
<g id="edge66" class="edge">
<title>42&#45;&gt;41</title>
<path fill="none" stroke="grey" stroke-width="2" d="M980.5,-431.7C980.5,-423.98 980.5,-414.71 980.5,-406.11"/>
<polygon fill="grey" stroke="grey" stroke-width="2" points="984,-406.1 980.5,-396.1 977,-406.1 984,-406.1"/>
</g>
<!-- 43 -->
<g id="node44" class="node">
<title>43</title>
<path fill="none" stroke="#56d8a9" stroke-width="2" d="M1009.5,-540C1009.5,-540 951.5,-540 951.5,-540 945.5,-540 939.5,-534 939.5,-528 939.5,-528 939.5,-516 939.5,-516 939.5,-510 945.5,-504 951.5,-504 951.5,-504 1009.5,-504 1009.5,-504 1015.5,-504 1021.5,-510 1021.5,-516 1021.5,-516 1021.5,-528 1021.5,-528 1021.5,-534 1015.5,-540 1009.5,-540"/>
<text text-anchor="middle" x="980.5" y="-525" font-family="sans" font-size="10.00">get_mapped</text>
<text text-anchor="middle" x="980.5" y="-514" font-family="sans" font-size="10.00">sample: X10_1</text>
</g>
<!-- 43&#45;&gt;42 -->
<g id="edge67" class="edge">
<title>43&#45;&gt;42</title>
<path fill="none" stroke="grey" stroke-width="2" d="M980.5,-503.7C980.5,-495.98 980.5,-486.71 980.5,-478.11"/>
<polygon fill="grey" stroke="grey" stroke-width="2" points="984,-478.1 980.5,-468.1 977,-478.1 984,-478.1"/>
</g>
<!-- 44&#45;&gt;0 -->
<g id="edge7" class="edge">
<title>44&#45;&gt;0</title>
<path fill="none" stroke="grey" stroke-width="2" d="M295.03,-82.6C397.63,-68.79 638.05,-36.43 730.43,-23.99"/>
<polygon fill="grey" stroke="grey" stroke-width="2" points="731,-27.45 740.44,-22.64 730.06,-20.51 731,-27.45"/>
</g>
<!-- 45&#45;&gt;44 -->
<g id="edge69" class="edge">
<title>45&#45;&gt;44</title>
<path fill="none" stroke="grey" stroke-width="2" d="M247.5,-143.7C247.5,-135.98 247.5,-126.71 247.5,-118.11"/>
<polygon fill="grey" stroke="grey" stroke-width="2" points="251,-118.1 247.5,-108.1 244,-118.1 251,-118.1"/>
</g>
<!-- 46&#45;&gt;45 -->
<g id="edge71" class="edge">
<title>46&#45;&gt;45</title>
<path fill="none" stroke="grey" stroke-width="2" d="M200.07,-215.7C207.7,-207.22 217.02,-196.86 225.38,-187.58"/>
<polygon fill="grey" stroke="grey" stroke-width="2" points="228.02,-189.88 232.11,-180.1 222.81,-185.2 228.02,-189.88"/>
</g>
<!-- 47 -->
<g id="node48" class="node">
<title>47</title>
<path fill="none" stroke="#80d856" stroke-width="2" d="M77.5,-324C77.5,-324 47.5,-324 47.5,-324 41.5,-324 35.5,-318 35.5,-312 35.5,-312 35.5,-300 35.5,-300 35.5,-294 41.5,-288 47.5,-288 47.5,-288 77.5,-288 77.5,-288 83.5,-288 89.5,-294 89.5,-300 89.5,-300 89.5,-312 89.5,-312 89.5,-318 83.5,-324 77.5,-324"/>
<text text-anchor="middle" x="62.5" y="-303.5" font-family="sans" font-size="10.00">fix_RG</text>
</g>
<!-- 47&#45;&gt;46 -->
<g id="edge73" class="edge">
<title>47&#45;&gt;46</title>
<path fill="none" stroke="grey" stroke-width="2" d="M89.58,-289.46C106.95,-279.5 129.71,-266.44 148.59,-255.61"/>
<polygon fill="grey" stroke="grey" stroke-width="2" points="150.57,-258.5 157.5,-250.49 147.08,-252.43 150.57,-258.5"/>
</g>
<!-- 48&#45;&gt;47 -->
<g id="edge74" class="edge">
<title>48&#45;&gt;47</title>
<path fill="none" stroke="grey" stroke-width="2" d="M53.47,-359.7C54.79,-351.98 56.38,-342.71 57.85,-334.11"/>
<polygon fill="grey" stroke="grey" stroke-width="2" points="61.33,-334.55 59.57,-324.1 54.43,-333.37 61.33,-334.55"/>
</g>
<!-- 49 -->
<g id="node50" class="node">
<title>49</title>
<path fill="none" stroke="#d8ac56" stroke-width="2" d="M71.5,-468C71.5,-468 29.5,-468 29.5,-468 23.5,-468 17.5,-462 17.5,-456 17.5,-456 17.5,-444 17.5,-444 17.5,-438 23.5,-432 29.5,-432 29.5,-432 71.5,-432 71.5,-432 77.5,-432 83.5,-438 83.5,-444 83.5,-444 83.5,-456 83.5,-456 83.5,-462 77.5,-468 71.5,-468"/>
<text text-anchor="middle" x="50.5" y="-447.5" font-family="sans" font-size="10.00">deduplicate</text>
</g>
<!-- 49&#45;&gt;48 -->
<g id="edge76" class="edge">
<title>49&#45;&gt;48</title>
<path fill="none" stroke="grey" stroke-width="2" d="M50.5,-431.7C50.5,-423.98 50.5,-414.71 50.5,-406.11"/>
<polygon fill="grey" stroke="grey" stroke-width="2" points="54,-406.1 50.5,-396.1 47,-406.1 54,-406.1"/>
</g>
<!-- 50 -->
<g id="node51" class="node">
<title>50</title>
<path fill="none" stroke="#56d8a9" stroke-width="2" d="M79.5,-540C79.5,-540 21.5,-540 21.5,-540 15.5,-540 9.5,-534 9.5,-528 9.5,-528 9.5,-516 9.5,-516 9.5,-510 15.5,-504 21.5,-504 21.5,-504 79.5,-504 79.5,-504 85.5,-504 91.5,-510 91.5,-516 91.5,-516 91.5,-528 91.5,-528 91.5,-534 85.5,-540 79.5,-540"/>
<text text-anchor="middle" x="50.5" y="-525" font-family="sans" font-size="10.00">get_mapped</text>
<text text-anchor="middle" x="50.5" y="-514" font-family="sans" font-size="10.00">sample: X10_2</text>
</g>
<!-- 50&#45;&gt;49 -->
<g id="edge77" class="edge">
<title>50&#45;&gt;49</title>
<path fill="none" stroke="grey" stroke-width="2" d="M50.5,-503.7C50.5,-495.98 50.5,-486.71 50.5,-478.11"/>
<polygon fill="grey" stroke="grey" stroke-width="2" points="54,-478.1 50.5,-468.1 47,-478.1 54,-478.1"/>
</g>
</g>
</svg>
